<svg width="757" height="757" viewBox="0 0 757 757" fill="none" xmlns="http://www.w3.org/2000/svg">
<path id="ibar-logo-paint" style="transition: 400ms ease all" d="M491.854 491.361L545.263 544.77C526.781 623.158 485.503 696.498 416.665 743.787C393.185 759.917 361.906 759.41 338.872 742.646C318.265 727.649 303.991 716.188 280.869 688.872C305.043 682.872 325.466 673.202 345.744 664.234C357.882 677.283 373.233 687.593 378.553 690.406C426.614 662.81 478.175 584.841 491.854 491.361ZM89.6999 528.761C111.037 541.615 132.317 549.219 152.999 557.217C152.35 575.03 155.917 593.172 157.688 598.92C211.186 613.396 302.778 594.716 378.552 538.292V613.825C310.053 656.183 229.006 678.856 146.892 663.618C118.882 658.422 97.1239 635.944 92.6929 607.803C88.7258 582.627 86.7388 564.428 89.6999 528.761ZM614.316 378.053C656.675 446.551 679.347 527.595 664.109 609.713C658.913 637.723 636.439 659.481 608.298 663.915C583.118 667.879 564.92 669.866 529.256 666.901C542.11 645.568 549.714 624.288 557.708 603.606C575.521 604.254 593.663 600.691 599.415 598.917C613.888 545.419 595.211 453.827 538.784 378.053H614.316ZM67.7418 280.376C73.7383 304.55 83.4115 324.973 92.3797 345.251C79.3276 357.389 69.0169 372.74 66.2045 378.06C93.8001 426.121 171.773 477.682 265.253 491.364L211.844 544.77C133.456 526.288 60.1159 485.013 12.8269 416.172C-3.30676 392.692 -2.79672 361.416 13.9675 338.379C28.9642 317.775 40.426 303.498 67.7418 280.376ZM545.261 211.347C623.649 229.829 696.989 271.107 744.278 339.945C760.412 363.425 759.902 394.704 743.138 417.738C728.141 438.345 716.679 452.619 689.363 475.741C683.367 451.564 673.694 431.144 664.725 410.866C677.777 398.724 688.088 383.377 690.901 378.057C663.305 329.996 585.332 278.435 491.852 264.756L545.261 211.347ZM227.849 89.2103C214.996 110.544 207.391 131.824 199.397 152.505C181.584 151.861 163.439 155.424 157.69 157.195C143.217 210.693 161.894 302.285 218.318 378.058H142.789C100.43 309.56 77.7581 228.516 92.9922 146.399C98.1918 118.389 120.666 96.6342 148.807 92.1997C173.987 88.2327 192.185 86.2456 227.849 89.2103ZM418.23 13.4743C438.837 28.471 453.111 39.9329 476.233 67.2486C452.059 73.2452 431.636 82.9183 411.358 91.8866C399.22 78.8344 383.869 68.5237 378.549 65.7114C330.488 93.3069 278.927 171.28 265.248 264.76L211.839 211.35C230.321 132.963 271.599 59.6227 340.437 12.3338C363.917 -3.79992 395.196 -3.28988 418.23 13.4743ZM610.208 92.4972C638.218 97.6968 659.976 120.171 664.411 148.312C668.374 173.492 670.365 191.69 667.4 227.354C646.063 214.501 624.787 206.896 604.102 198.902C604.75 181.089 601.186 162.944 599.412 157.195C545.914 142.722 454.325 161.399 378.548 217.823V142.294C447.047 99.9354 528.094 77.2632 610.208 92.4972Z" stroke="#ECECEC"/>
</svg>
